<?xml version="1.0" standalone="no"?>
<!DOCTYPE svg PUBLIC "-//W3C//DTD SVG 20010904//EN"
 "http://www.w3.org/TR/2001/REC-SVG-20010904/DTD/svg10.dtd">
<svg version="1.0" xmlns="http://www.w3.org/2000/svg"
 width="500.000000pt" height="500.000000pt" viewBox="0 0 500.000000 500.000000"
 preserveAspectRatio="xMidYMid meet">
<metadata>
Created by potrace 1.14, written by Peter Selinger 2001-2017
</metadata>
<g transform="translate(0.000000,500.000000) scale(0.100000,-0.100000)"
fill="#000000" stroke="none">
<path d="M2123 4980 c-420 -64 -808 -231 -1166 -502 -106 -80 -309 -279 -402
-393 -153 -188 -312 -461 -399 -685 -65 -169 -123 -403 -146 -591 -17 -135 -8
-617 13 -724 109 -558 329 -981 706 -1356 214 -213 412 -355 666 -479 228
-111 435 -178 695 -225 124 -23 560 -32 698 -15 355 43 737 176 1032 359 223
139 494 380 641 571 291 377 472 810 526 1260 19 157 13 547 -11 692 -20 120
-75 335 -116 453 -42 118 -163 370 -230 476 -206 325 -481 602 -801 804 -295
187 -675 322 -1029 365 -142 17 -536 11 -677 -10z m533 -300 c560 -44 1069
-289 1445 -695 76 -82 138 -158 165 -200 16 -26 11 -23 -31 15 -121 111 -315
218 -492 273 -208 65 -456 93 -668 76 -573 -46 -1002 -309 -1138 -697 l-31
-87 -3 -255 c-2 -140 -5 -532 -7 -870 -4 -652 -8 -723 -56 -878 -29 -92 -48
-119 -116 -162 -176 -111 -370 -134 -518 -61 -85 42 -216 150 -259 213 -136
201 -106 501 68 672 119 117 236 150 333 96 125 -70 176 -304 100 -454 -52
-103 -105 -142 -182 -134 -56 7 -98 38 -132 101 -47 86 -30 166 47 232 38 31
72 32 134 0 27 -13 50 -23 51 -22 8 8 -34 72 -60 92 -70 53 -158 38 -245 -41
-138 -124 -138 -310 1 -460 61 -67 131 -97 226 -97 140 0 241 61 334 200 60
89 84 151 98 252 25 182 -50 399 -174 507 -89 79 -233 120 -361 104 -192 -24
-403 -192 -505 -404 -57 -119 -73 -196 -73 -361 0 -130 7 -188 38 -280 16 -47
-63 90 -121 210 -480 997 -122 2206 827 2796 256 159 592 276 889 309 200 22
251 23 416 10z m715 -821 c236 -24 437 -95 605 -214 86 -62 157 -144 200 -231
35 -70 38 -81 38 -168 1 -90 -1 -96 -41 -177 -135 -272 -522 -450 -978 -449
-250 1 -473 53 -665 158 -86 47 -133 83 -206 158 -184 192 -180 436 12 625 83
82 80 79 141 117 234 149 562 215 894 181z m1189 -635 c82 -233 121 -465 121
-724 -1 -397 -91 -737 -291 -1094 -112 -199 -317 -440 -508 -598 -164 -135
-412 -279 -607 -351 -715 -267 -1488 -155 -2101 304 -107 80 -317 278 -224
211 152 -110 263 -152 421 -160 195 -9 348 35 529 153 152 99 216 227 266 530
14 81 18 201 21 633 3 292 6 532 8 532 2 0 33 -22 68 -48 125 -95 320 -181
522 -231 100 -25 316 -51 419 -51 107 0 311 26 434 55 445 106 779 388 848
716 16 72 16 246 0 294 -17 54 47 -94 74 -171z"/>
<path d="M2803 3519 c-54 -34 -63 -76 -63 -282 0 -153 3 -187 18 -216 37 -75
128 -102 192 -59 66 44 71 67 68 293 -3 193 -4 202 -26 230 -13 17 -33 35 -45
42 -35 19 -108 15 -144 -8z"/>
<path d="M3458 3525 c-14 -8 -36 -30 -48 -49 -20 -34 -21 -45 -18 -245 l3
-211 38 -37 c34 -35 42 -38 91 -38 63 0 98 21 127 75 17 30 19 59 19 219 0
206 -10 249 -69 284 -35 21 -106 22 -143 2z"/>
</g>
</svg>
