<?xml version="1.0" standalone="no"?>
<!DOCTYPE svg PUBLIC "-//W3C//DTD SVG 20010904//EN"
 "http://www.w3.org/TR/2001/REC-SVG-20010904/DTD/svg10.dtd">
<svg version="1.0" xmlns="http://www.w3.org/2000/svg"
 width="600.000000pt" height="600.000000pt" viewBox="0 0 600.000000 600.000000"
 preserveAspectRatio="xMidYMid meet">
<metadata>
Created by potrace 1.14, written by Peter Selinger 2001-2017
</metadata>
<g transform="translate(0.000000,600.000000) scale(0.100000,-0.100000)"
fill="#000000" stroke="none">
<path d="M3805 5183 c-328 -20 -616 -89 -865 -209 -298 -143 -525 -353 -648
-599 -17 -33 -42 -103 -57 -155 -33 -113 -33 -129 -38 -1470 -3 -734 -6 -861
-21 -970 -35 -252 -76 -383 -140 -445 -56 -53 -176 -120 -284 -158 -79 -28
-98 -31 -212 -31 -110 0 -134 3 -196 25 -101 37 -231 125 -334 227 -133 132
-178 241 -187 448 -10 219 45 371 186 514 156 158 284 208 414 164 204 -69
295 -425 166 -650 -101 -178 -248 -211 -363 -84 -49 54 -86 134 -86 186 0 54
41 133 95 183 57 53 94 54 188 7 37 -19 67 -31 67 -28 -1 20 -50 89 -83 116
-32 26 -48 31 -107 34 -62 4 -74 1 -130 -29 -71 -38 -156 -125 -190 -195 -20
-41 -24 -65 -25 -150 0 -98 1 -102 42 -185 73 -148 184 -236 326 -259 193 -31
379 67 511 268 99 153 134 283 123 465 -20 328 -179 560 -440 642 -98 31 -245
36 -342 10 -149 -39 -328 -160 -455 -307 -68 -78 -146 -214 -181 -315 -49
-143 -68 -333 -50 -504 31 -282 139 -486 357 -668 240 -201 407 -275 649 -288
245 -13 465 50 697 199 185 118 274 278 333 593 40 219 45 327 45 1008 0 382
4 647 9 647 5 0 33 -19 62 -41 220 -174 561 -312 899 -363 476 -73 958 -8
1359 180 525 248 805 686 726 1137 -60 346 -300 631 -698 827 -264 131 -512
195 -847 220 -130 10 -166 10 -275 3z m383 -384 c327 -37 656 -175 852 -356
124 -115 190 -225 217 -362 53 -269 -112 -531 -452 -717 -582 -319 -1474 -264
-1953 121 -156 126 -257 286 -271 430 -19 197 37 342 189 496 116 118 272 214
465 287 114 44 315 91 445 105 82 9 419 6 508 -4z"/>
<path d="M3402 4353 c-28 -18 -51 -45 -67 -77 -24 -49 -25 -55 -25 -289 0
-220 2 -242 21 -287 40 -92 155 -138 238 -96 37 20 89 79 98 114 5 15 8 140 8
277 0 281 -1 287 -78 348 -30 24 -49 32 -95 35 -49 3 -63 0 -100 -25z"/>
<path d="M4259 4352 c-31 -20 -53 -45 -68 -74 -20 -42 -21 -59 -21 -294 0
-282 6 -307 76 -360 33 -25 46 -29 105 -29 78 0 105 15 154 84 l30 43 0 261
c0 257 0 263 -23 300 -38 61 -85 90 -150 95 -50 3 -63 0 -103 -26z"/>
</g>
</svg>
