<?xml version="1.0" standalone="no"?>
<!DOCTYPE svg PUBLIC "-//W3C//DTD SVG 20010904//EN"
 "http://www.w3.org/TR/2001/REC-SVG-20010904/DTD/svg10.dtd">
<svg version="1.0" xmlns="http://www.w3.org/2000/svg"
 width="600.000000pt" height="600.000000pt" viewBox="0 0 600.000000 600.000000"
 preserveAspectRatio="xMidYMid meet">
<metadata>
Created by potrace 1.14, written by Peter Selinger 2001-2017
</metadata>
<g transform="translate(0.000000,600.000000) scale(0.100000,-0.100000)"
fill="#000000" stroke="none">
<path d="M3805 5183 c-328 -20 -616 -89 -865 -209 -297 -143 -525 -354 -648
-599 -26 -53 -58 -151 -78 -240 -9 -43 -14 -384 -17 -1370 -3 -749 -6 -876
-21 -985 -35 -252 -76 -383 -140 -445 -56 -53 -176 -120 -284 -158 -79 -28
-98 -31 -212 -31 -110 0 -134 3 -196 25 -152 55 -379 238 -442 357 -52 99 -74
185 -79 318 -10 219 45 370 185 513 154 158 285 210 415 165 204 -69 295 -425
166 -650 -101 -178 -248 -211 -363 -84 -49 54 -86 134 -86 186 0 54 41 133 95
183 57 53 94 54 188 7 37 -19 67 -31 67 -28 -1 20 -50 89 -83 116 -32 26 -48
31 -107 34 -62 4 -74 1 -130 -29 -71 -38 -156 -125 -190 -195 -20 -41 -24 -65
-25 -150 0 -98 1 -102 42 -185 120 -243 365 -330 600 -214 122 60 245 204 313
363 83 197 59 490 -58 700 -36 64 -128 160 -196 204 -165 107 -396 120 -591
33 -270 -119 -496 -404 -560 -705 -34 -164 -28 -402 16 -561 46 -168 155 -341
288 -457 251 -219 438 -306 686 -319 250 -13 494 60 725 217 160 109 249 277
305 575 40 219 45 327 45 1013 0 358 2 652 5 652 3 0 33 -23 67 -51 214 -173
557 -312 898 -363 571 -87 1165 27 1578 304 108 72 251 205 323 299 66 88 145
247 169 346 104 411 -93 832 -515 1103 -96 62 -311 163 -425 201 -193 62 -360
94 -590 111 -130 10 -166 10 -275 3z m440 -387 c147 -23 377 -88 442 -125 10
-6 38 -20 63 -31 138 -60 314 -199 400 -315 190 -257 155 -550 -93 -782 -191
-179 -474 -311 -762 -357 -186 -30 -210 -32 -365 -35 -294 -5 -608 65 -855
191 -232 117 -392 274 -471 463 -26 63 -29 81 -29 180 0 98 3 118 28 180 41
101 89 169 187 265 113 112 277 211 465 280 87 32 331 87 438 99 117 12 434 5
552 -13z"/>
<path d="M3432 4367 c-47 -18 -90 -62 -104 -110 -18 -59 -18 -486 0 -546 45
-149 268 -159 328 -14 17 39 20 507 4 564 -12 42 -51 82 -102 103 -43 19 -80
19 -126 3z"/>
<path d="M4293 4369 c-47 -14 -99 -72 -112 -124 -15 -59 -15 -462 0 -521 25
-96 113 -147 216 -124 54 12 104 55 124 107 5 13 9 138 9 276 0 226 -2 256
-19 294 -34 75 -135 118 -218 92z"/>
</g>
</svg>
